:FULLY-SPECIFIED
:FORCE-ALL-JOINTS-BE-3DOF
:DEGREES
951
root 1.62813 15.5083 32.5705 4.94801 0.0272696 363.628
lfemur 1.59202 -0.602898 4.62927
ltibia 7.81891 0 0
lfoot -15.642 -26.2721 0
ltoes -10.3677 0 0
rfemur -27.9531 -10.3902 -7.07087
rtibia 46.4793 0 0
rfoot -10.7198 -0.100227 0
rtoes -39.562 0 0
lowerback -1.60167 -0.273916 -0.546474
upperback -1.0029 -0.359889 -5.79602
thorax -0.184438 -0.196065 -5.70389
lowerneck -6.63479 -0.960042 3.21366
upperneck 1.57416 -1.6998 4.3208
head 1.74691 -0.733519 0.744882
lclavicle 1.27764e-014 -1.24743e-016 0
lhumerus -55.8436 -41.0059 111.734
lradius 56.4726 0 0
lwrist 21.2607 0 0
lhand 38.2395 24.5809 0
lfingers 7.12502 0 0
lthumb 60.91 37.2885 0
rclavicle 1.27764e-014 -1.24743e-016 0
rhumerus -20.8109 -2.93338 -37.5094
rradius 62.0433 0 0
rwrist -6.19814 0 0
rhand -18.0566 -32.6838 0
rfingers 7.12502 0 0
rthumb 8.17308 -781.684 0
952
root 1.59815 15.4881 32.5717 5.00626 -0.262924 363.66
lfemur 1.97493 -0.426156 4.66112
ltibia 7.40739 0 0
lfoot -16.4055 -25.5289 0
ltoes -11.5805 0 0
rfemur -28.29 -10.7015 -7.01405
rtibia 46.7632 0 0
rfoot -11.3665 0.24546 0
rtoes -39.6388 0 0
lowerback -1.60446 -0.286386 -0.475645
upperback -1.00224 -0.377743 -5.81218
thorax -0.184132 -0.205602 -5.76167
lowerneck -6.61834 -0.842206 3.3492
upperneck 1.49471 -1.54688 4.26363
head 1.7123 -0.659842 0.709394
lclavicle 1.28678e-014 4.67712e-016 0
lhumerus -55.9774 -41.162 111.868
lradius 56.3899 0 0
lwrist 21.4784 0 0
lhand 38.1781 24.6145 0
lfingers 7.12502 0 0
lthumb 60.8583 37.3825 0
rclavicle 1.28678e-014 4.67712e-016 0
rhumerus -19.4954 -4.14741 -35.4859
rradius 60.2765 0 0
rwrist -6.55216 0 0
rhand -18.7879 -33.4086 0
rfingers 7.12502 0 0
rthumb 7.46909 -782.457 0
953
root 1.56817 15.4679 32.5729 5.06451 -0.553117 363.692
lfemur 2.35785 -0.249413 4.69297
ltibia 6.99587 0 0
lfoot -17.1691 -24.7858 0
ltoes -12.7933 0 0
rfemur -28.627 -11.0128 -6.95722
rtibia 47.0471 0 0
rfoot -12.0132 0.591147 0
rtoes -39.7156 0 0
lowerback -1.60725 -0.298856 -0.404815
upperback -1.00157 -0.395597 -5.82834
thorax -0.183827 -0.21514 -5.81944
lowerneck -6.60189 -0.72437 3.48475
upperneck 1.41527 -1.39396 4.20647
head 1.67768 -0.586166 0.673906
lclavicle 1.29591e-014 1.06017e-015 0
lhumerus -56.1112 -41.3181 112.002
lradius 56.3072 0 0
lwrist 21.6962 0 0
lhand 38.1168 24.6481 0
lfingers 7.12502 0 0
lthumb 60.8066 37.4765 0
rclavicle 1.29591e-014 1.06017e-015 0
rhumerus -18.18 -5.36143 -33.4625
rradius 58.5097 0 0
rwrist -6.90619 0 0
rhand -19.5193 -34.1334 0
rfingers 7.12502 0 0
rthumb 6.76511 -783.23 0
954
root 1.53819 15.4477 32.5742 5.12276 -0.84331 363.724
lfemur 2.74076 -0.0726708 4.72482
ltibia 6.58435 0 0
lfoot -17.9326 -24.0426 0
ltoes -14.0062 0 0
rfemur -28.9639 -11.324 -6.90039
rtibia 47.331 0 0
rfoot -12.6598 0.936833 0
rtoes -39.7924 0 0
lowerback -1.61004 -0.311325 -0.333986
upperback -1.0009 -0.413451 -5.8445
thorax -0.183521 -0.224677 -5.87721
lowerneck -6.58544 -0.606534 3.62029
upperneck 1.33582 -1.24105 4.14931
head 1.64307 -0.51249 0.638418
lclavicle 1.30504e-014 1.65262e-015 0
lhumerus -56.245 -41.4742 112.136
lradius 56.2246 0 0
lwrist 21.9139 0 0
lhand 38.0554 24.6817 0
lfingers 7.12502 0 0
lthumb 60.7549 37.5706 0
rclavicle 1.30504e-014 1.65262e-015 0
rhumerus -16.8645 -6.57546 -31.439
rradius 56.7428 0 0
rwrist -7.26021 0 0
rhand -20.2506 -34.8582 0
rfingers 7.12502 0 0
rthumb 6.06112 -784.003 0
955
root 1.50822 15.4275 32.5754 5.18101 -1.1335 363.756
lfemur 3.12367 0.104072 4.75667
ltibia 6.17282 0 0
lfoot -18.6961 -23.2995 0
ltoes -15.219 0 0
rfemur -29.3009 -11.6353 -6.84357
rtibia 47.6149 0 0
rfoot -13.3065 1.28252 0
rtoes -39.8692 0 0
lowerback -1.61283 -0.323795 -0.263156
upperback -1.00024 -0.431305 -5.86066
thorax -0.183216 -0.234214 -5.93499
lowerneck -6.56899 -0.488698 3.75584
upperneck 1.25637 -1.08813 4.09214
head 1.60846 -0.438813 0.60293
lclavicle 1.31417e-014 2.24508e-015 0
lhumerus -56.3789 -41.6303 112.27
lradius 56.1419 0 0
lwrist 22.1316 0 0
lhand 37.994 24.7153 0
lfingers 7.12502 0 0
lthumb 60.7032 37.6646 0
rclavicle 1.31417e-014 2.24508e-015 0
rhumerus -15.5491 -7.78949 -29.4156
rradius 54.976 0 0
rwrist -7.61424 0 0
rhand -20.982 -35.583 0
rfingers 7.12502 0 0
rthumb 5.35713 -784.776 0
956
root 1.47824 15.4073 32.5766 5.23926 -1.4237 363.788
lfemur 3.50659 0.280814 4.78852
ltibia 5.7613 0 0
lfoot -19.4596 -22.5563 0
ltoes -16.4319 0 0
rfemur -29.6378 -11.9466 -6.78674
rtibia 47.8988 0 0
rfoot -13.9532 1.62821 0
rtoes -39.946 0 0
lowerback -1.61562 -0.336265 -0.192327
upperback -0.99957 -0.449159 -5.87682
thorax -0.18291 -0.243752 -5.99276
lowerneck -6.55254 -0.370862 3.89138
upperneck 1.17692 -0.935212 4.03498
head 1.57384 -0.365137 0.567442
lclavicle 1.3233e-014 2.83753e-015 0
lhumerus -56.5127 -41.7864 112.404
lradius 56.0593 0 0
lwrist 22.3493 0 0
lhand 37.9326 24.7489 0
lfingers 7.12502 0 0
lthumb 60.6516 37.7586 0
rclavicle 1.3233e-014 2.83753e-015 0
rhumerus -14.2337 -9.00352 -27.3921
rradius 53.2092 0 0
rwrist -7.96826 0 0
rhand -21.7133 -36.3077 0
rfingers 7.12502 0 0
rthumb 4.65314 -785.549 0
957
root 1.44826 15.3871 32.5779 5.29751 -1.71389 363.82
lfemur 3.8895 0.457557 4.82037
ltibia 5.34978 0 0
lfoot -20.2231 -21.8132 0
ltoes -17.6447 0 0
rfemur -29.9747 -12.2579 -6.72992
rtibia 48.1827 0 0
rfoot -14.5998 1.97389 0
rtoes -40.0228 0 0
lowerback -1.61841 -0.348735 -0.121497
upperback -0.998903 -0.467013 -5.89298
thorax -0.182605 -0.253289 -6.05053
lowerneck -6.53609 -0.253026 4.02693
upperneck 1.09748 -0.782294 3.97782
head 1.53923 -0.291461 0.531954
lclavicle 1.33243e-014 3.42999e-015 0
lhumerus -56.6465 -41.9425 112.538
lradius 55.9766 0 0
lwrist 22.5671 0 0
lhand 37.8712 24.7825 0
lfingers 7.12502 0 0
lthumb 60.5999 37.8526 0
rclavicle 1.33243e-014 3.42999e-015 0
rhumerus -12.9182 -10.2175 -25.3687
rradius 51.4423 0 0
rwrist -8.32228 0 0
rhand -22.4447 -37.0325 0
rfingers 7.12502 0 0
rthumb 3.94915 -786.322 0
958
root 1.41828 15.3668 32.5791 5.35575 -2.00408 363.851
lfemur 4.27241 0.634299 4.85223
ltibia 4.93826 0 0
lfoot -20.9867 -21.07 0
ltoes -18.8575 0 0
rfemur -30.3117 -12.5691 -6.67309
rtibia 48.4666 0 0
rfoot -15.2465 2.31958 0
rtoes -40.0997 0 0
lowerback -1.6212 -0.361204 -0.0506676
upperback -0.998237 -0.484868 -5.90915
thorax -0.182299 -0.262827 -6.1083
lowerneck -6.51964 -0.135191 4.16247
upperneck 1.01803 -0.629377 3.92065
head 1.50462 -0.217785 0.496466
lclavicle 1.34156e-014 4.02244e-015 0
lhumerus -56.7803 -42.0986 112.673
lradius 55.8939 0 0
lwrist 22.7848 0 0
lhand 37.8099 24.8161 0
lfingers 7.12502 0 0
lthumb 60.5482 37.9467 0
rclavicle 1.34156e-014 4.02244e-015 0
rhumerus -11.6028 -11.4316 -23.3452
rradius 49.6755 0 0
rwrist -8.67631 0 0
rhand -23.176 -37.7573 0
rfingers 7.12502 0 0
rthumb 3.24517 -787.095 0
959
root 1.3883 15.3466 32.5803 5.414 -2.29428 363.883
lfemur 4.65533 0.811042 4.88408
ltibia 4.52674 0 0
lfoot -21.7502 -20.3269 0
ltoes -20.0704 0 0
rfemur -30.6486 -12.8804 -6.61626
rtibia 48.7505 0 0
rfoot -15.8932 2.66527 0
rtoes -40.1765 0 0
lowerback -1.62399 -0.373674 0.020162
upperback -0.99757 -0.502722 -5.92531
thorax -0.181994 -0.272364 -6.16608
lowerneck -6.50319 -0.0173547 4.29802
upperneck 0.938582 -0.47646 3.86349
head 1.47 -0.144108 0.460978
lclavicle 1.35069e-014 4.6149e-015 0
lhumerus -56.9141 -42.2547 112.807
lradius 55.8113 0 0
lwrist 23.0025 0 0
lhand 37.7485 24.8497 0
lfingers 7.12502 0 0
lthumb 60.4965 38.0407 0
rclavicle 1.35069e-014 4.6149e-015 0
rhumerus -10.2873 -12.6456 -21.3217
rradius 47.9087 0 0
rwrist -9.03033 0 0
rhand -23.9074 -38.4821 0
rfingers 7.12502 0 0
rthumb 2.54118 -787.868 0
960
root 1.35832 15.3264 32.5816 5.47225 -2.58447 363.915
lfemur 5.03824 0.987785 4.91593
ltibia 4.11522 0 0
lfoot -22.5137 -19.5838 0
ltoes -21.2832 0 0
rfemur -30.9856 -13.1917 -6.55944
rtibia 49.0344 0 0
rfoot -16.5398 3.01095 0
rtoes -40.2533 0 0
lowerback -1.62678 -0.386144 0.0909915
upperback -0.996904 -0.520576 -5.94147
thorax -0.181689 -0.281901 -6.22385
lowerneck -6.48674 0.100481 4.43357
upperneck 0.859135 -0.323543 3.80633
head 1.43539 -0.0704319 0.42549
lclavicle 1.35982e-014 5.20735e-015 0
lhumerus -57.0479 -42.4108 112.941
lradius 55.7286 0 0
lwrist 23.2202 0 0
lhand 37.6871 24.8833 0
lfingers 7.12502 0 0
lthumb 60.4448 38.1347 0
rclavicle 1.35982e-014 5.20735e-015 0
rhumerus -8.97191 -13.8596 -19.2983
rradius 46.1418 0 0
rwrist -9.38436 0 0
rhand -24.6388 -39.2069 0
rfingers 7.12502 0 0
rthumb 1.83719 -788.641 0
961
root 1.32835 15.3062 32.5828 5.5305 -2.87466 363.947
lfemur 5.42115 1.16453 4.94778
ltibia 3.70369 0 0
lfoot -23.2772 -18.8406 0
ltoes -22.496 0 0
rfemur -31.3225 -13.5029 -6.50261
rtibia 49.3183 0 0
rfoot -17.1865 3.35664 0
rtoes -40.3301 0 0
lowerback -1.62957 -0.398613 0.161821
upperback -0.996237 -0.53843 -5.95763
thorax -0.181383 -0.291439 -6.28162
lowerneck -6.47029 0.218317 4.56911
upperneck 0.779687 -0.170625 3.74916
head 1.40078 0.00324435 0.390001
lclavicle 1.36895e-014 5.79981e-015 0
lhumerus -57.1818 -42.5669 113.075
lradius 55.6459 0 0
lwrist 23.438 0 0
lhand 37.6257 24.9169 0
lfingers 7.12502 0 0
lthumb 60.3931 38.2288 0
rclavicle 1.36895e-014 5.79981e-015 0
rhumerus -7.65647 -15.0737 -17.2748
rradius 44.375 0 0
rwrist -9.73838 0 0
rhand -25.3701 -39.9317 0
rfingers 7.12502 0 0
rthumb 1.1332 -789.414 0
